<?xml version="1.0" encoding="utf-8" standalone="no"?>
<!DOCTYPE svg PUBLIC "-//W3C//DTD SVG 1.1//EN"
  "http://www.w3.org/Graphics/SVG/1.1/DTD/svg11.dtd">
<svg xmlns:xlink="http://www.w3.org/1999/xlink" width="460.8pt" height="345.6pt" viewBox="0 0 460.8 345.6" xmlns="http://www.w3.org/2000/svg" version="1.1">
 <metadata>
  <rdf:RDF xmlns:dc="http://purl.org/dc/elements/1.1/" xmlns:cc="http://creativecommons.org/ns#" xmlns:rdf="http://www.w3.org/1999/02/22-rdf-syntax-ns#">
   <cc:Work>
    <dc:type rdf:resource="http://purl.org/dc/dcmitype/StillImage"/>
    <dc:date>2025-02-12T13:49:18.325873</dc:date>
    <dc:format>image/svg+xml</dc:format>
    <dc:creator>
     <cc:Agent>
      <dc:title>Matplotlib v3.9.2, https://matplotlib.org/</dc:title>
     </cc:Agent>
    </dc:creator>
   </cc:Work>
  </rdf:RDF>
 </metadata>
 <defs>
  <style type="text/css">*{stroke-linejoin: round; stroke-linecap: butt}</style>
 </defs>
 <g id="figure_1">
  <g id="patch_1">
   <path d="M 0 345.6 
L 460.8 345.6 
L 460.8 0 
L 0 0 
z
" style="fill: #ffffff"/>
  </g>
  <g id="axes_1">
   <g id="patch_2">
    <path d="M 57.6 119.740235 
L 414.72 119.740235 
L 414.72 41.472 
L 57.6 41.472 
z
" style="fill: #ffffff"/>
   </g>
   <g id="matplotlib.axis_1">
    <g id="xtick_1">
     <g id="line2d_1">
      <defs>
       <path id="mea68789bc7" d="M 0 0 
L 0 3.5 
" style="stroke: #000000; stroke-width: 0.8"/>
      </defs>
      <g>
       <use xlink:href="#mea68789bc7" x="72.398922" y="119.740235" style="stroke: #000000; stroke-width: 0.8"/>
      </g>
     </g>
    </g>
    <g id="xtick_2">
     <g id="line2d_2">
      <g>
       <use xlink:href="#mea68789bc7" x="113.364795" y="119.740235" style="stroke: #000000; stroke-width: 0.8"/>
      </g>
     </g>
    </g>
    <g id="xtick_3">
     <g id="line2d_3">
      <g>
       <use xlink:href="#mea68789bc7" x="154.330668" y="119.740235" style="stroke: #000000; stroke-width: 0.8"/>
      </g>
     </g>
    </g>
    <g id="xtick_4">
     <g id="line2d_4">
      <g>
       <use xlink:href="#mea68789bc7" x="195.296541" y="119.740235" style="stroke: #000000; stroke-width: 0.8"/>
      </g>
     </g>
    </g>
    <g id="xtick_5">
     <g id="line2d_5">
      <g>
       <use xlink:href="#mea68789bc7" x="236.262415" y="119.740235" style="stroke: #000000; stroke-width: 0.8"/>
      </g>
     </g>
    </g>
    <g id="xtick_6">
     <g id="line2d_6">
      <g>
       <use xlink:href="#mea68789bc7" x="277.228288" y="119.740235" style="stroke: #000000; stroke-width: 0.8"/>
      </g>
     </g>
    </g>
    <g id="xtick_7">
     <g id="line2d_7">
      <g>
       <use xlink:href="#mea68789bc7" x="318.194161" y="119.740235" style="stroke: #000000; stroke-width: 0.8"/>
      </g>
     </g>
    </g>
    <g id="xtick_8">
     <g id="line2d_8">
      <g>
       <use xlink:href="#mea68789bc7" x="359.160034" y="119.740235" style="stroke: #000000; stroke-width: 0.8"/>
      </g>
     </g>
    </g>
    <g id="xtick_9">
     <g id="line2d_9">
      <g>
       <use xlink:href="#mea68789bc7" x="400.125908" y="119.740235" style="stroke: #000000; stroke-width: 0.8"/>
      </g>
     </g>
    </g>
   </g>
   <g id="matplotlib.axis_2">
    <g id="text_1">
     <!-- LAGP -->
     <g transform="translate(6.6075 77.278618) scale(0.16 -0.16)">
      <defs>
       <path id="DejaVuSans-4c" d="M 628 4666 
L 1259 4666 
L 1259 531 
L 3531 531 
L 3531 0 
L 628 0 
L 628 4666 
z
" transform="scale(0.015625)"/>
       <path id="DejaVuSans-41" d="M 2188 4044 
L 1331 1722 
L 3047 1722 
L 2188 4044 
z
M 1831 4666 
L 2547 4666 
L 4325 0 
L 3669 0 
L 3244 1197 
L 1141 1197 
L 716 0 
L 50 0 
L 1831 4666 
z
" transform="scale(0.015625)"/>
       <path id="DejaVuSans-47" d="M 3809 666 
L 3809 1919 
L 2778 1919 
L 2778 2438 
L 4434 2438 
L 4434 434 
Q 4069 175 3628 42 
Q 3188 -91 2688 -91 
Q 1594 -91 976 548 
Q 359 1188 359 2328 
Q 359 3472 976 4111 
Q 1594 4750 2688 4750 
Q 3144 4750 3555 4637 
Q 3966 4525 4313 4306 
L 4313 3634 
Q 3963 3931 3569 4081 
Q 3175 4231 2741 4231 
Q 1884 4231 1454 3753 
Q 1025 3275 1025 2328 
Q 1025 1384 1454 906 
Q 1884 428 2741 428 
Q 3075 428 3337 486 
Q 3600 544 3809 666 
z
" transform="scale(0.015625)"/>
       <path id="DejaVuSans-50" d="M 1259 4147 
L 1259 2394 
L 2053 2394 
Q 2494 2394 2734 2622 
Q 2975 2850 2975 3272 
Q 2975 3691 2734 3919 
Q 2494 4147 2053 4147 
L 1259 4147 
z
M 628 4666 
L 2053 4666 
Q 2838 4666 3239 4311 
Q 3641 3956 3641 3272 
Q 3641 2581 3239 2228 
Q 2838 1875 2053 1875 
L 1259 1875 
L 1259 0 
L 628 0 
L 628 4666 
z
" transform="scale(0.015625)"/>
      </defs>
      <use xlink:href="#DejaVuSans-4c"/>
      <use xlink:href="#DejaVuSans-41" x="57.962891"/>
      <use xlink:href="#DejaVuSans-47" x="124.621094"/>
      <use xlink:href="#DejaVuSans-50" x="202.111328"/>
     </g>
    </g>
   </g>
   <g id="line2d_10">
    <path d="M 73.832727 116.182588 
L 76.700338 116.182588 
L 79.56795 116.182588 
L 82.435561 116.182588 
L 85.303172 116.182588 
L 88.170783 116.182588 
L 91.038394 116.182588 
L 93.906005 116.182588 
L 96.773616 116.182588 
L 99.641227 116.182588 
L 102.508839 116.182588 
L 105.37645 116.182588 
L 108.244061 116.182588 
L 111.111672 116.182588 
L 113.979283 116.182588 
L 116.846894 116.182588 
L 119.714505 116.182588 
L 122.582116 116.182588 
L 125.449728 116.182588 
L 128.317339 116.182588 
L 131.18495 113.655661 
L 134.052561 52.621962 
L 136.920172 52.551382 
L 139.787783 106.994795 
L 142.655394 113.823562 
L 145.523005 101.483411 
L 148.390617 84.928007 
L 151.258228 86.379302 
L 154.125839 94.535673 
L 156.99345 107.368614 
L 159.861061 109.078743 
L 162.728672 110.592942 
L 165.596283 110.261263 
L 168.463894 104.615745 
L 171.331506 94.767041 
L 174.199117 87.528933 
L 177.066728 82.699698 
L 179.934339 82.111831 
L 182.80195 91.660985 
L 185.669561 98.559478 
L 188.537172 100.354276 
L 191.404783 106.315493 
L 194.272395 108.146379 
L 197.140006 107.887939 
L 200.007617 105.3364 
L 202.875228 100.677557 
L 205.742839 95.224454 
L 208.61045 97.143675 
L 211.478061 97.970834 
L 214.345672 100.095949 
L 217.213284 99.801214 
L 220.080895 98.740359 
L 222.948506 95.716248 
L 225.816117 94.041544 
L 228.683728 91.032324 
L 231.551339 92.888276 
L 234.41895 92.855252 
L 237.286562 92.695819 
L 240.154173 90.629704 
L 243.021784 91.714731 
L 245.889395 91.001504 
L 248.757006 90.628045 
L 251.624617 94.973996 
L 254.492228 97.97812 
L 257.359839 97.57373 
L 260.227451 97.4499 
L 263.095062 97.528685 
L 265.962673 96.963515 
L 268.830284 96.187547 
L 271.697895 97.125281 
L 274.565506 95.762531 
L 277.433117 93.605719 
L 280.300728 93.21387 
L 283.16834 95.385641 
L 286.035951 95.897667 
L 288.903562 97.652956 
L 291.771173 98.698859 
L 294.638784 99.029243 
L 297.506395 98.850639 
L 300.374006 97.248605 
L 303.241617 97.297221 
L 306.109229 97.740049 
L 308.97684 96.953338 
L 311.844451 97.157258 
L 314.712062 97.62142 
L 317.579673 96.438672 
L 320.447284 96.135444 
L 323.314895 96.282755 
L 326.182506 96.89567 
L 329.050118 95.187954 
L 331.917729 96.038407 
L 334.78534 95.503679 
L 337.652951 97.27249 
L 340.520562 97.134838 
L 343.388173 97.549044 
L 346.255784 98.351308 
L 349.123395 98.059945 
L 351.991007 96.865548 
L 354.858618 97.085485 
L 357.726229 96.013114 
" clip-path="url(#p7e3c529e58)" style="fill: none; stroke: #0000ff; stroke-width: 1.5; stroke-linecap: square"/>
   </g>
   <g id="line2d_11">
    <path d="M 73.832727 116.182588 
L 76.700338 116.182588 
L 79.56795 116.182588 
L 82.435561 116.182588 
L 85.303172 116.182588 
L 88.170783 116.182588 
L 91.038394 116.182588 
L 93.906005 116.182588 
L 96.773616 116.182588 
L 99.641227 116.182588 
L 102.508839 116.182588 
L 105.37645 116.182588 
L 108.244061 116.182588 
L 111.111672 116.182588 
L 113.979283 116.182588 
L 116.846894 116.182588 
L 119.714505 116.182588 
L 122.582116 116.182588 
L 125.449728 116.182588 
L 128.317339 116.182588 
L 131.18495 113.514223 
L 134.052561 52.298938 
L 136.920172 50.466558 
L 139.787783 102.644835 
L 142.655394 106.841088 
L 145.523005 93.76203 
L 148.390617 84.065817 
L 151.258228 89.489529 
L 154.125839 102.375414 
L 156.99345 107.304843 
L 159.861061 109.752762 
L 162.728672 112.163857 
L 165.596283 112.171386 
L 168.463894 106.411175 
L 171.331506 97.3374 
L 174.199117 86.221762 
L 177.066728 82.602786 
L 179.934339 86.762336 
L 182.80195 94.407974 
L 185.669561 96.854248 
L 188.537172 102.279363 
L 191.404783 104.460786 
L 194.272395 104.315966 
L 197.140006 104.130841 
L 200.007617 100.890579 
L 202.875228 96.980565 
L 205.742839 97.33648 
L 208.61045 97.624527 
L 211.478061 98.858696 
L 214.345672 100.21273 
L 217.213284 100.39913 
L 220.080895 98.139964 
L 222.948506 96.243585 
L 225.816117 95.501662 
L 228.683728 94.155824 
L 231.551339 93.688227 
L 234.41895 93.228203 
L 237.286562 94.547342 
L 240.154173 92.440338 
L 243.021784 92.457255 
L 245.889395 91.158211 
L 248.757006 93.810498 
L 251.624617 95.222522 
L 254.492228 96.24834 
L 257.359839 97.370886 
L 260.227451 95.878536 
L 263.095062 96.174599 
L 265.962673 97.118595 
L 268.830284 94.749672 
L 271.697895 94.33 
L 274.565506 93.516348 
L 277.433117 94.462823 
L 280.300728 93.54047 
L 283.16834 95.005908 
L 286.035951 96.73815 
L 288.903562 96.965605 
L 291.771173 98.210027 
L 294.638784 98.318111 
L 297.506395 98.547896 
L 300.374006 98.633821 
L 303.241617 97.874787 
L 306.109229 97.176823 
L 308.97684 98.531951 
L 311.844451 96.843068 
L 314.712062 96.355615 
L 317.579673 96.936018 
L 320.447284 97.012026 
L 323.314895 96.552464 
L 326.182506 96.277563 
L 329.050118 96.719879 
L 331.917729 96.24988 
L 334.78534 96.727838 
L 337.652951 96.942294 
L 340.520562 96.93825 
L 343.388173 96.882865 
L 346.255784 96.451408 
L 349.123395 97.393523 
L 351.991007 98.353774 
L 354.858618 96.581737 
L 357.726229 97.162557 
" clip-path="url(#p7e3c529e58)" style="fill: none; stroke-dasharray: 5.55,2.4; stroke-dashoffset: 0; stroke: #800080; stroke-width: 1.5"/>
   </g>
   <g id="line2d_12">
    <path d="M 73.832727 116.182588 
L 76.700338 116.182588 
L 79.56795 116.182588 
L 82.435561 116.182588 
L 85.303172 116.182588 
L 88.170783 116.182588 
L 91.038394 116.182588 
L 93.906005 116.182588 
L 96.773616 116.182588 
L 99.641227 116.182588 
L 102.508839 116.182588 
L 105.37645 116.182588 
L 108.244061 116.182588 
L 111.111672 116.182588 
L 113.979283 116.182588 
L 116.846894 116.182588 
L 119.714505 116.182588 
L 122.582116 116.182588 
L 125.449728 116.182588 
L 128.317339 116.182588 
L 131.18495 112.81036 
L 134.052561 58.952772 
L 136.920172 45.029647 
L 139.787783 108.69751 
L 142.655394 114.214987 
L 145.523005 102.560152 
L 148.390617 85.572989 
L 151.258228 83.073124 
L 154.125839 97.715476 
L 156.99345 105.324987 
L 159.861061 109.453336 
L 162.728672 111.540252 
L 165.596283 110.591472 
L 168.463894 105.342198 
L 171.331506 95.839597 
L 174.199117 87.128597 
L 177.066728 77.971103 
L 179.934339 82.9215 
L 182.80195 90.682972 
L 185.669561 98.013908 
L 188.537172 102.932607 
L 191.404783 106.443895 
L 194.272395 106.831381 
L 197.140006 107.506046 
L 200.007617 107.116189 
L 202.875228 100.264406 
L 205.742839 97.117785 
L 208.61045 97.597928 
L 211.478061 97.804016 
L 214.345672 98.92471 
L 217.213284 100.666673 
L 220.080895 98.368589 
L 222.948506 97.755095 
L 225.816117 92.948923 
L 228.683728 91.924633 
L 231.551339 92.062301 
L 234.41895 93.167551 
L 237.286562 93.675286 
L 240.154173 90.330892 
L 243.021784 89.99141 
L 245.889395 90.301456 
L 248.757006 92.198072 
L 251.624617 94.501584 
L 254.492228 96.790209 
L 257.359839 96.30794 
L 260.227451 97.323136 
L 263.095062 97.64567 
L 265.962673 98.683403 
L 268.830284 96.043924 
L 271.697895 97.010541 
L 274.565506 94.484833 
L 277.433117 93.701195 
L 280.300728 93.597973 
L 283.16834 94.667494 
L 286.035951 95.326323 
L 288.903562 97.96805 
L 291.771173 100.116374 
L 294.638784 98.69935 
L 297.506395 99.02693 
L 300.374006 97.157033 
L 303.241617 98.210063 
L 306.109229 97.261309 
L 308.97684 97.335418 
L 311.844451 97.22507 
L 314.712062 96.893593 
L 317.579673 97.148256 
L 320.447284 95.486171 
L 323.314895 96.573642 
L 326.182506 96.833298 
L 329.050118 95.670679 
L 331.917729 96.092628 
L 334.78534 94.667018 
L 337.652951 96.344555 
L 340.520562 97.131434 
L 343.388173 98.299663 
L 346.255784 99.047803 
L 349.123395 98.373646 
L 351.991007 96.77384 
L 354.858618 96.338052 
L 357.726229 94.646991 
" clip-path="url(#p7e3c529e58)" style="fill: none; stroke-dasharray: 1.5,2.475; stroke-dashoffset: 0; stroke: #ff0000; stroke-width: 1.5"/>
   </g>
   <g id="line2d_13">
    <path d="M 73.832727 116.182588 
L 76.700338 116.182588 
L 79.56795 116.182588 
L 82.435561 116.182588 
L 85.303172 116.182588 
L 88.170783 116.182588 
L 91.038394 116.182588 
L 93.906005 116.182588 
L 96.773616 116.182588 
L 99.641227 116.182588 
L 102.508839 116.182588 
L 105.37645 116.182588 
L 108.244061 116.182588 
L 111.111672 116.182588 
L 113.979283 116.182588 
L 116.846894 116.182588 
L 119.714505 116.182588 
L 122.582116 116.182588 
L 125.449728 116.182588 
L 128.317339 116.182588 
L 131.18495 112.241287 
L 134.052561 56.035025 
L 136.920172 49.810237 
L 139.787783 106.970193 
L 142.655394 114.802805 
L 145.523005 102.717752 
L 148.390617 83.327948 
L 151.258228 81.918731 
L 154.125839 98.410808 
L 156.99345 108.432715 
L 159.861061 109.568498 
L 162.728672 109.385504 
L 165.596283 109.685296 
L 168.463894 105.533685 
L 171.331506 94.908519 
L 174.199117 86.513306 
L 177.066728 80.03437 
L 179.934339 84.797313 
L 182.80195 90.876864 
L 185.669561 96.009628 
L 188.537172 102.908916 
L 191.404783 106.701302 
L 194.272395 108.45241 
L 197.140006 110.241974 
L 200.007617 107.398748 
L 202.875228 101.379072 
L 205.742839 96.043929 
L 208.61045 94.575346 
L 211.478061 98.374808 
L 214.345672 99.328485 
L 217.213284 99.525354 
L 220.080895 98.336737 
L 222.948506 96.477139 
L 225.816117 93.734208 
L 228.683728 91.084494 
L 231.551339 92.74907 
L 234.41895 93.497077 
L 237.286562 93.706621 
L 240.154173 92.462997 
L 243.021784 89.47664 
L 245.889395 90.643121 
L 248.757006 89.433333 
L 251.624617 93.039067 
L 254.492228 96.520766 
L 257.359839 97.523901 
L 260.227451 98.723641 
L 263.095062 98.254718 
L 265.962673 96.600399 
L 268.830284 96.562718 
L 271.697895 96.878269 
L 274.565506 94.612692 
L 277.433117 94.170222 
L 280.300728 93.174879 
L 283.16834 94.519504 
L 286.035951 95.395631 
L 288.903562 97.997759 
L 291.771173 99.78435 
L 294.638784 100.835238 
L 297.506395 98.765824 
L 300.374006 97.89064 
L 303.241617 97.100569 
L 306.109229 95.73102 
L 308.97684 97.736361 
L 311.844451 97.513637 
L 314.712062 96.726524 
L 317.579673 95.819256 
L 320.447284 96.745992 
L 323.314895 96.507669 
L 326.182506 96.874242 
L 329.050118 96.682852 
L 331.917729 96.143393 
L 334.78534 95.038427 
L 337.652951 96.004827 
L 340.520562 96.867264 
L 343.388173 98.10868 
L 346.255784 99.146911 
L 349.123395 98.557823 
L 351.991007 97.11257 
L 354.858618 95.863501 
L 357.726229 95.158295 
" clip-path="url(#p7e3c529e58)" style="fill: none; stroke-dasharray: 9.6,2.4,1.5,2.4; stroke-dashoffset: 0; stroke: #ffa500; stroke-width: 1.5"/>
   </g>
   <g id="patch_3">
    <path d="M 57.6 119.740235 
L 57.6 41.472 
" style="fill: none; stroke: #000000; stroke-width: 0.8; stroke-linejoin: miter; stroke-linecap: square"/>
   </g>
   <g id="patch_4">
    <path d="M 414.72 119.740235 
L 414.72 41.472 
" style="fill: none; stroke: #000000; stroke-width: 0.8; stroke-linejoin: miter; stroke-linecap: square"/>
   </g>
   <g id="patch_5">
    <path d="M 57.6 119.740235 
L 414.72 119.740235 
" style="fill: none; stroke: #000000; stroke-width: 0.8; stroke-linejoin: miter; stroke-linecap: square"/>
   </g>
   <g id="patch_6">
    <path d="M 57.6 41.472 
L 414.72 41.472 
" style="fill: none; stroke: #000000; stroke-width: 0.8; stroke-linejoin: miter; stroke-linecap: square"/>
   </g>
  </g>
  <g id="axes_2">
   <g id="patch_7">
    <path d="M 57.6 213.662118 
L 414.72 213.662118 
L 414.72 135.393882 
L 57.6 135.393882 
z
" style="fill: #ffffff"/>
   </g>
   <g id="matplotlib.axis_3">
    <g id="xtick_10">
     <g id="line2d_14">
      <g>
       <use xlink:href="#mea68789bc7" x="72.398922" y="213.662118" style="stroke: #000000; stroke-width: 0.8"/>
      </g>
     </g>
    </g>
    <g id="xtick_11">
     <g id="line2d_15">
      <g>
       <use xlink:href="#mea68789bc7" x="113.364795" y="213.662118" style="stroke: #000000; stroke-width: 0.8"/>
      </g>
     </g>
    </g>
    <g id="xtick_12">
     <g id="line2d_16">
      <g>
       <use xlink:href="#mea68789bc7" x="154.330668" y="213.662118" style="stroke: #000000; stroke-width: 0.8"/>
      </g>
     </g>
    </g>
    <g id="xtick_13">
     <g id="line2d_17">
      <g>
       <use xlink:href="#mea68789bc7" x="195.296541" y="213.662118" style="stroke: #000000; stroke-width: 0.8"/>
      </g>
     </g>
    </g>
    <g id="xtick_14">
     <g id="line2d_18">
      <g>
       <use xlink:href="#mea68789bc7" x="236.262415" y="213.662118" style="stroke: #000000; stroke-width: 0.8"/>
      </g>
     </g>
    </g>
    <g id="xtick_15">
     <g id="line2d_19">
      <g>
       <use xlink:href="#mea68789bc7" x="277.228288" y="213.662118" style="stroke: #000000; stroke-width: 0.8"/>
      </g>
     </g>
    </g>
    <g id="xtick_16">
     <g id="line2d_20">
      <g>
       <use xlink:href="#mea68789bc7" x="318.194161" y="213.662118" style="stroke: #000000; stroke-width: 0.8"/>
      </g>
     </g>
    </g>
    <g id="xtick_17">
     <g id="line2d_21">
      <g>
       <use xlink:href="#mea68789bc7" x="359.160034" y="213.662118" style="stroke: #000000; stroke-width: 0.8"/>
      </g>
     </g>
    </g>
    <g id="xtick_18">
     <g id="line2d_22">
      <g>
       <use xlink:href="#mea68789bc7" x="400.125908" y="213.662118" style="stroke: #000000; stroke-width: 0.8"/>
      </g>
     </g>
    </g>
   </g>
   <g id="matplotlib.axis_4">
    <g id="text_2">
     <!-- LGPS -->
     <g transform="translate(7.04125 171.2005) scale(0.16 -0.16)">
      <defs>
       <path id="DejaVuSans-53" d="M 3425 4513 
L 3425 3897 
Q 3066 4069 2747 4153 
Q 2428 4238 2131 4238 
Q 1616 4238 1336 4038 
Q 1056 3838 1056 3469 
Q 1056 3159 1242 3001 
Q 1428 2844 1947 2747 
L 2328 2669 
Q 3034 2534 3370 2195 
Q 3706 1856 3706 1288 
Q 3706 609 3251 259 
Q 2797 -91 1919 -91 
Q 1588 -91 1214 -16 
Q 841 59 441 206 
L 441 856 
Q 825 641 1194 531 
Q 1563 422 1919 422 
Q 2459 422 2753 634 
Q 3047 847 3047 1241 
Q 3047 1584 2836 1778 
Q 2625 1972 2144 2069 
L 1759 2144 
Q 1053 2284 737 2584 
Q 422 2884 422 3419 
Q 422 4038 858 4394 
Q 1294 4750 2059 4750 
Q 2388 4750 2728 4690 
Q 3069 4631 3425 4513 
z
" transform="scale(0.015625)"/>
      </defs>
      <use xlink:href="#DejaVuSans-4c"/>
      <use xlink:href="#DejaVuSans-47" x="55.712891"/>
      <use xlink:href="#DejaVuSans-50" x="133.203125"/>
      <use xlink:href="#DejaVuSans-53" x="193.505859"/>
     </g>
    </g>
   </g>
   <g id="line2d_23">
    <path d="M 74.037557 210.104471 
L 77.314826 210.104471 
L 80.592096 210.104471 
L 83.869366 210.104471 
L 87.146636 210.104471 
L 90.423906 210.104471 
L 93.701176 210.104471 
L 96.978446 210.104471 
L 100.255716 210.104471 
L 103.532985 210.104471 
L 106.810255 210.104471 
L 110.087525 210.104471 
L 113.364795 210.104471 
L 116.642065 210.104471 
L 119.919335 210.104471 
L 123.196605 210.104471 
L 126.473874 210.104471 
L 129.751144 210.104471 
L 133.028414 210.104471 
L 136.305684 210.104471 
L 139.582954 210.104471 
L 142.860224 210.104471 
L 146.137494 210.104471 
L 149.414763 207.981206 
L 152.692033 189.59274 
L 155.969303 162.31686 
L 159.246573 167.524794 
L 162.523843 164.362567 
L 165.801113 144.416993 
L 169.078383 162.269204 
L 172.355652 148.336553 
L 175.632922 166.968384 
L 178.910192 167.36145 
L 182.187462 171.964842 
L 185.464732 169.710112 
L 188.742002 186.376521 
L 192.019272 175.775785 
L 195.296541 180.917754 
L 198.573811 174.107083 
L 201.851081 174.027562 
L 205.128351 162.56055 
L 208.405621 166.526377 
L 211.682891 163.683565 
L 214.960161 165.483366 
L 218.23743 165.393498 
L 221.5147 169.602959 
L 224.79197 166.1738 
L 228.06924 179.438677 
L 231.34651 172.713403 
L 234.62378 176.123276 
L 237.90105 170.55807 
L 241.178319 172.078894 
L 244.455589 178.619344 
L 247.732859 178.761029 
L 251.010129 177.334326 
L 254.287399 170.699764 
L 257.564669 173.919064 
L 260.841939 178.713691 
L 264.119208 166.75601 
L 267.396478 174.660278 
L 270.673748 165.890053 
L 273.951018 170.261768 
L 277.228288 172.727378 
L 280.505558 169.096512 
L 283.782828 172.895191 
L 287.060098 172.929269 
L 290.337367 174.701863 
L 293.614637 170.466566 
L 296.891907 171.990302 
L 300.169177 171.986654 
L 303.446447 175.183874 
L 306.723717 172.368789 
L 310.000987 171.17146 
L 313.278256 171.138227 
L 316.555526 174.184554 
L 319.832796 172.969557 
L 323.110066 174.535216 
L 326.387336 176.813963 
L 329.664606 174.51661 
L 332.941876 172.715757 
L 336.219145 172.281607 
L 339.496415 170.820551 
L 342.773685 172.887073 
L 346.050955 173.016257 
L 349.328225 171.671599 
L 352.605495 171.602805 
L 355.882765 168.491096 
L 359.160034 172.27053 
L 362.437304 170.874716 
L 365.714574 169.843192 
L 368.991844 170.9428 
L 372.269114 170.463399 
L 375.546384 170.630551 
L 378.823654 174.756969 
L 382.100923 174.844489 
L 385.378193 174.164596 
L 388.655463 171.757219 
L 391.932733 173.465027 
L 395.210003 171.243804 
L 398.487273 171.78408 
" clip-path="url(#p52c35b9a50)" style="fill: none; stroke: #0000ff; stroke-width: 1.5; stroke-linecap: square"/>
   </g>
   <g id="line2d_24">
    <path d="M 74.037557 210.104471 
L 77.314826 210.104471 
L 80.592096 210.104471 
L 83.869366 210.104471 
L 87.146636 210.104471 
L 90.423906 210.104471 
L 93.701176 210.104471 
L 96.978446 210.104471 
L 100.255716 210.104471 
L 103.532985 210.104471 
L 106.810255 210.104471 
L 110.087525 210.104471 
L 113.364795 210.104471 
L 116.642065 210.104471 
L 119.919335 210.104471 
L 123.196605 210.104471 
L 126.473874 210.104471 
L 129.751144 210.104471 
L 133.028414 210.104471 
L 136.305684 210.104471 
L 139.582954 210.104471 
L 142.860224 210.104471 
L 146.137494 210.104471 
L 149.414763 209.024106 
L 152.692033 187.242842 
L 155.969303 173.401961 
L 159.246573 170.171984 
L 162.523843 150.931986 
L 165.801113 157.214905 
L 169.078383 158.682652 
L 172.355652 156.86775 
L 175.632922 163.200587 
L 178.910192 155.309269 
L 182.187462 172.355226 
L 185.464732 174.010415 
L 188.742002 174.59472 
L 192.019272 177.40944 
L 195.296541 171.916549 
L 198.573811 173.069352 
L 201.851081 171.096391 
L 205.128351 166.450785 
L 208.405621 160.560522 
L 211.682891 171.783908 
L 214.960161 175.7328 
L 218.23743 168.521782 
L 221.5147 166.870735 
L 224.79197 168.710184 
L 228.06924 167.79004 
L 231.34651 180.932165 
L 234.62378 174.306043 
L 237.90105 177.113587 
L 241.178319 182.206966 
L 244.455589 174.816421 
L 247.732859 177.374077 
L 251.010129 173.3409 
L 254.287399 171.941665 
L 257.564669 167.859794 
L 260.841939 177.07693 
L 264.119208 176.104066 
L 267.396478 175.72036 
L 270.673748 171.304794 
L 273.951018 170.663101 
L 277.228288 171.609586 
L 280.505558 171.036641 
L 283.782828 174.3901 
L 287.060098 167.822587 
L 290.337367 172.188112 
L 293.614637 170.552945 
L 296.891907 169.791743 
L 300.169177 169.09041 
L 303.446447 173.367132 
L 306.723717 175.788211 
L 310.000987 171.39268 
L 313.278256 171.334317 
L 316.555526 170.862972 
L 319.832796 173.465811 
L 323.110066 174.213484 
L 326.387336 171.954556 
L 329.664606 173.404492 
L 332.941876 173.283401 
L 336.219145 170.048829 
L 339.496415 172.912306 
L 342.773685 172.581057 
L 346.050955 173.474429 
L 349.328225 168.319192 
L 352.605495 171.168323 
L 355.882765 170.308851 
L 359.160034 172.304393 
L 362.437304 172.239554 
L 365.714574 174.868817 
L 368.991844 172.000354 
L 372.269114 170.262842 
L 375.546384 172.793386 
L 378.823654 172.358591 
L 382.100923 173.955047 
L 385.378193 172.745304 
L 388.655463 168.773749 
L 391.932733 169.742746 
L 395.210003 170.312095 
L 398.487273 171.710644 
" clip-path="url(#p52c35b9a50)" style="fill: none; stroke-dasharray: 5.55,2.4; stroke-dashoffset: 0; stroke: #800080; stroke-width: 1.5"/>
   </g>
   <g id="line2d_25">
    <path d="M 74.037557 210.104471 
L 77.314826 210.104471 
L 80.592096 210.104471 
L 83.869366 210.104471 
L 87.146636 210.104471 
L 90.423906 210.104471 
L 93.701176 210.104471 
L 96.978446 210.104471 
L 100.255716 210.104471 
L 103.532985 210.104471 
L 106.810255 210.104471 
L 110.087525 210.104471 
L 113.364795 210.104471 
L 116.642065 210.104471 
L 119.919335 210.104471 
L 123.196605 210.104471 
L 126.473874 210.104471 
L 129.751144 210.104471 
L 133.028414 210.104471 
L 136.305684 210.104471 
L 139.582954 210.104471 
L 142.860224 210.104471 
L 146.137494 210.104471 
L 149.414763 210.104471 
L 152.692033 187.032467 
L 155.969303 155.971689 
L 159.246573 169.018529 
L 162.523843 173.478046 
L 165.801113 166.767147 
L 169.078383 145.120389 
L 172.355652 146.830059 
L 175.632922 151.94654 
L 178.910192 160.933583 
L 182.187462 174.109427 
L 185.464732 175.196032 
L 188.742002 174.38741 
L 192.019272 179.782901 
L 195.296541 181.788768 
L 198.573811 180.125869 
L 201.851081 179.035388 
L 205.128351 166.125564 
L 208.405621 169.224634 
L 211.682891 168.569684 
L 214.960161 169.237383 
L 218.23743 168.139133 
L 221.5147 173.866021 
L 224.79197 170.870594 
L 228.06924 170.714651 
L 231.34651 168.887417 
L 234.62378 173.126676 
L 237.90105 173.445135 
L 241.178319 172.679034 
L 244.455589 172.625486 
L 247.732859 172.602053 
L 251.010129 173.577035 
L 254.287399 173.569949 
L 257.564669 170.332146 
L 260.841939 169.957967 
L 264.119208 166.259724 
L 267.396478 169.840247 
L 270.673748 170.371921 
L 273.951018 167.076007 
L 277.228288 172.874065 
L 280.505558 165.450026 
L 283.782828 174.176047 
L 287.060098 172.574373 
L 290.337367 179.175647 
L 293.614637 173.878747 
L 296.891907 174.19074 
L 300.169177 175.455732 
L 303.446447 176.315575 
L 306.723717 174.883448 
L 310.000987 179.47159 
L 313.278256 175.705851 
L 316.555526 176.415133 
L 319.832796 175.37802 
L 323.110066 177.956388 
L 326.387336 176.666775 
L 329.664606 174.984624 
L 332.941876 172.392729 
L 336.219145 171.631747 
L 339.496415 169.094651 
L 342.773685 169.489249 
L 346.050955 167.393633 
L 349.328225 168.479373 
L 352.605495 167.394762 
L 355.882765 169.76491 
L 359.160034 171.360082 
L 362.437304 169.283331 
L 365.714574 169.109724 
L 368.991844 173.392925 
L 372.269114 168.469625 
L 375.546384 170.039459 
L 378.823654 172.872307 
L 382.100923 171.458872 
L 385.378193 173.149857 
L 388.655463 174.779414 
L 391.932733 172.039892 
L 395.210003 174.89074 
L 398.487273 173.08839 
" clip-path="url(#p52c35b9a50)" style="fill: none; stroke-dasharray: 1.5,2.475; stroke-dashoffset: 0; stroke: #ff0000; stroke-width: 1.5"/>
   </g>
   <g id="line2d_26">
    <path d="M 74.037557 210.104471 
L 77.314826 210.104471 
L 80.592096 210.104471 
L 83.869366 210.104471 
L 87.146636 210.104471 
L 90.423906 210.104471 
L 93.701176 210.104471 
L 96.978446 210.104471 
L 100.255716 210.104471 
L 103.532985 210.104471 
L 106.810255 210.104471 
L 110.087525 210.104471 
L 113.364795 210.104471 
L 116.642065 210.104471 
L 119.919335 210.104471 
L 123.196605 210.104471 
L 126.473874 210.104471 
L 129.751144 210.104471 
L 133.028414 210.104471 
L 136.305684 210.104471 
L 139.582954 210.104471 
L 142.860224 210.104471 
L 146.137494 210.104471 
L 149.414763 209.062316 
L 152.692033 188.051405 
L 155.969303 162.308494 
L 159.246573 168.30599 
L 162.523843 180.423031 
L 165.801113 155.5425 
L 169.078383 161.162697 
L 172.355652 138.951529 
L 175.632922 143.977159 
L 178.910192 151.798049 
L 182.187462 177.79333 
L 185.464732 176.25413 
L 188.742002 181.331233 
L 192.019272 183.318191 
L 195.296541 186.774178 
L 198.573811 176.320789 
L 201.851081 172.107109 
L 205.128351 175.013007 
L 208.405621 165.98906 
L 211.682891 166.447231 
L 214.960161 167.214567 
L 218.23743 169.120464 
L 221.5147 170.90209 
L 224.79197 165.648773 
L 228.06924 171.072384 
L 231.34651 170.952402 
L 234.62378 168.994565 
L 237.90105 174.894858 
L 241.178319 171.691423 
L 244.455589 176.064477 
L 247.732859 178.330574 
L 251.010129 174.253564 
L 254.287399 169.927763 
L 257.564669 175.304196 
L 260.841939 167.10294 
L 264.119208 170.410614 
L 267.396478 173.196913 
L 270.673748 167.802048 
L 273.951018 169.92745 
L 277.228288 169.729254 
L 280.505558 170.562625 
L 283.782828 170.810691 
L 287.060098 173.342979 
L 290.337367 169.624283 
L 293.614637 168.288122 
L 296.891907 170.972166 
L 300.169177 175.546002 
L 303.446447 179.762109 
L 306.723717 177.339678 
L 310.000987 175.937593 
L 313.278256 178.56576 
L 316.555526 178.784491 
L 319.832796 177.892 
L 323.110066 175.777935 
L 326.387336 179.149764 
L 329.664606 175.076121 
L 332.941876 176.133931 
L 336.219145 171.465503 
L 339.496415 172.841164 
L 342.773685 170.102487 
L 346.050955 167.339792 
L 349.328225 166.65306 
L 352.605495 169.159576 
L 355.882765 165.331127 
L 359.160034 166.950113 
L 362.437304 167.184908 
L 365.714574 170.86929 
L 368.991844 170.044846 
L 372.269114 167.065545 
L 375.546384 173.978445 
L 378.823654 170.730662 
L 382.100923 172.913138 
L 385.378193 173.814156 
L 388.655463 173.1407 
L 391.932733 173.47118 
L 395.210003 172.075424 
L 398.487273 173.417391 
" clip-path="url(#p52c35b9a50)" style="fill: none; stroke-dasharray: 9.6,2.4,1.5,2.4; stroke-dashoffset: 0; stroke: #ffa500; stroke-width: 1.5"/>
   </g>
   <g id="patch_8">
    <path d="M 57.6 213.662118 
L 57.6 135.393882 
" style="fill: none; stroke: #000000; stroke-width: 0.8; stroke-linejoin: miter; stroke-linecap: square"/>
   </g>
   <g id="patch_9">
    <path d="M 414.72 213.662118 
L 414.72 135.393882 
" style="fill: none; stroke: #000000; stroke-width: 0.8; stroke-linejoin: miter; stroke-linecap: square"/>
   </g>
   <g id="patch_10">
    <path d="M 57.6 213.662118 
L 414.72 213.662118 
" style="fill: none; stroke: #000000; stroke-width: 0.8; stroke-linejoin: miter; stroke-linecap: square"/>
   </g>
   <g id="patch_11">
    <path d="M 57.6 135.393882 
L 414.72 135.393882 
" style="fill: none; stroke: #000000; stroke-width: 0.8; stroke-linejoin: miter; stroke-linecap: square"/>
   </g>
  </g>
  <g id="axes_3">
   <g id="patch_12">
    <path d="M 57.6 307.584 
L 414.72 307.584 
L 414.72 229.315765 
L 57.6 229.315765 
z
" style="fill: #ffffff"/>
   </g>
   <g id="matplotlib.axis_5">
    <g id="xtick_19">
     <g id="line2d_27">
      <g>
       <use xlink:href="#mea68789bc7" x="72.398922" y="307.584" style="stroke: #000000; stroke-width: 0.8"/>
      </g>
     </g>
     <g id="text_3">
      <!-- 0 -->
      <g transform="translate(69.217672 322.182437) scale(0.1 -0.1)">
       <defs>
        <path id="DejaVuSans-30" d="M 2034 4250 
Q 1547 4250 1301 3770 
Q 1056 3291 1056 2328 
Q 1056 1369 1301 889 
Q 1547 409 2034 409 
Q 2525 409 2770 889 
Q 3016 1369 3016 2328 
Q 3016 3291 2770 3770 
Q 2525 4250 2034 4250 
z
M 2034 4750 
Q 2819 4750 3233 4129 
Q 3647 3509 3647 2328 
Q 3647 1150 3233 529 
Q 2819 -91 2034 -91 
Q 1250 -91 836 529 
Q 422 1150 422 2328 
Q 422 3509 836 4129 
Q 1250 4750 2034 4750 
z
" transform="scale(0.015625)"/>
       </defs>
       <use xlink:href="#DejaVuSans-30"/>
      </g>
     </g>
    </g>
    <g id="xtick_20">
     <g id="line2d_28">
      <g>
       <use xlink:href="#mea68789bc7" x="113.364795" y="307.584" style="stroke: #000000; stroke-width: 0.8"/>
      </g>
     </g>
     <g id="text_4">
      <!-- 1 -->
      <g transform="translate(110.183545 322.182437) scale(0.1 -0.1)">
       <defs>
        <path id="DejaVuSans-31" d="M 794 531 
L 1825 531 
L 1825 4091 
L 703 3866 
L 703 4441 
L 1819 4666 
L 2450 4666 
L 2450 531 
L 3481 531 
L 3481 0 
L 794 0 
L 794 531 
z
" transform="scale(0.015625)"/>
       </defs>
       <use xlink:href="#DejaVuSans-31"/>
      </g>
     </g>
    </g>
    <g id="xtick_21">
     <g id="line2d_29">
      <g>
       <use xlink:href="#mea68789bc7" x="154.330668" y="307.584" style="stroke: #000000; stroke-width: 0.8"/>
      </g>
     </g>
     <g id="text_5">
      <!-- 2 -->
      <g transform="translate(151.149418 322.182437) scale(0.1 -0.1)">
       <defs>
        <path id="DejaVuSans-32" d="M 1228 531 
L 3431 531 
L 3431 0 
L 469 0 
L 469 531 
Q 828 903 1448 1529 
Q 2069 2156 2228 2338 
Q 2531 2678 2651 2914 
Q 2772 3150 2772 3378 
Q 2772 3750 2511 3984 
Q 2250 4219 1831 4219 
Q 1534 4219 1204 4116 
Q 875 4013 500 3803 
L 500 4441 
Q 881 4594 1212 4672 
Q 1544 4750 1819 4750 
Q 2544 4750 2975 4387 
Q 3406 4025 3406 3419 
Q 3406 3131 3298 2873 
Q 3191 2616 2906 2266 
Q 2828 2175 2409 1742 
Q 1991 1309 1228 531 
z
" transform="scale(0.015625)"/>
       </defs>
       <use xlink:href="#DejaVuSans-32"/>
      </g>
     </g>
    </g>
    <g id="xtick_22">
     <g id="line2d_30">
      <g>
       <use xlink:href="#mea68789bc7" x="195.296541" y="307.584" style="stroke: #000000; stroke-width: 0.8"/>
      </g>
     </g>
     <g id="text_6">
      <!-- 3 -->
      <g transform="translate(192.115291 322.182437) scale(0.1 -0.1)">
       <defs>
        <path id="DejaVuSans-33" d="M 2597 2516 
Q 3050 2419 3304 2112 
Q 3559 1806 3559 1356 
Q 3559 666 3084 287 
Q 2609 -91 1734 -91 
Q 1441 -91 1130 -33 
Q 819 25 488 141 
L 488 750 
Q 750 597 1062 519 
Q 1375 441 1716 441 
Q 2309 441 2620 675 
Q 2931 909 2931 1356 
Q 2931 1769 2642 2001 
Q 2353 2234 1838 2234 
L 1294 2234 
L 1294 2753 
L 1863 2753 
Q 2328 2753 2575 2939 
Q 2822 3125 2822 3475 
Q 2822 3834 2567 4026 
Q 2313 4219 1838 4219 
Q 1578 4219 1281 4162 
Q 984 4106 628 3988 
L 628 4550 
Q 988 4650 1302 4700 
Q 1616 4750 1894 4750 
Q 2613 4750 3031 4423 
Q 3450 4097 3450 3541 
Q 3450 3153 3228 2886 
Q 3006 2619 2597 2516 
z
" transform="scale(0.015625)"/>
       </defs>
       <use xlink:href="#DejaVuSans-33"/>
      </g>
     </g>
    </g>
    <g id="xtick_23">
     <g id="line2d_31">
      <g>
       <use xlink:href="#mea68789bc7" x="236.262415" y="307.584" style="stroke: #000000; stroke-width: 0.8"/>
      </g>
     </g>
     <g id="text_7">
      <!-- 4 -->
      <g transform="translate(233.081165 322.182437) scale(0.1 -0.1)">
       <defs>
        <path id="DejaVuSans-34" d="M 2419 4116 
L 825 1625 
L 2419 1625 
L 2419 4116 
z
M 2253 4666 
L 3047 4666 
L 3047 1625 
L 3713 1625 
L 3713 1100 
L 3047 1100 
L 3047 0 
L 2419 0 
L 2419 1100 
L 313 1100 
L 313 1709 
L 2253 4666 
z
" transform="scale(0.015625)"/>
       </defs>
       <use xlink:href="#DejaVuSans-34"/>
      </g>
     </g>
    </g>
    <g id="xtick_24">
     <g id="line2d_32">
      <g>
       <use xlink:href="#mea68789bc7" x="277.228288" y="307.584" style="stroke: #000000; stroke-width: 0.8"/>
      </g>
     </g>
     <g id="text_8">
      <!-- 5 -->
      <g transform="translate(274.047038 322.182437) scale(0.1 -0.1)">
       <defs>
        <path id="DejaVuSans-35" d="M 691 4666 
L 3169 4666 
L 3169 4134 
L 1269 4134 
L 1269 2991 
Q 1406 3038 1543 3061 
Q 1681 3084 1819 3084 
Q 2600 3084 3056 2656 
Q 3513 2228 3513 1497 
Q 3513 744 3044 326 
Q 2575 -91 1722 -91 
Q 1428 -91 1123 -41 
Q 819 9 494 109 
L 494 744 
Q 775 591 1075 516 
Q 1375 441 1709 441 
Q 2250 441 2565 725 
Q 2881 1009 2881 1497 
Q 2881 1984 2565 2268 
Q 2250 2553 1709 2553 
Q 1456 2553 1204 2497 
Q 953 2441 691 2322 
L 691 4666 
z
" transform="scale(0.015625)"/>
       </defs>
       <use xlink:href="#DejaVuSans-35"/>
      </g>
     </g>
    </g>
    <g id="xtick_25">
     <g id="line2d_33">
      <g>
       <use xlink:href="#mea68789bc7" x="318.194161" y="307.584" style="stroke: #000000; stroke-width: 0.8"/>
      </g>
     </g>
     <g id="text_9">
      <!-- 6 -->
      <g transform="translate(315.012911 322.182437) scale(0.1 -0.1)">
       <defs>
        <path id="DejaVuSans-36" d="M 2113 2584 
Q 1688 2584 1439 2293 
Q 1191 2003 1191 1497 
Q 1191 994 1439 701 
Q 1688 409 2113 409 
Q 2538 409 2786 701 
Q 3034 994 3034 1497 
Q 3034 2003 2786 2293 
Q 2538 2584 2113 2584 
z
M 3366 4563 
L 3366 3988 
Q 3128 4100 2886 4159 
Q 2644 4219 2406 4219 
Q 1781 4219 1451 3797 
Q 1122 3375 1075 2522 
Q 1259 2794 1537 2939 
Q 1816 3084 2150 3084 
Q 2853 3084 3261 2657 
Q 3669 2231 3669 1497 
Q 3669 778 3244 343 
Q 2819 -91 2113 -91 
Q 1303 -91 875 529 
Q 447 1150 447 2328 
Q 447 3434 972 4092 
Q 1497 4750 2381 4750 
Q 2619 4750 2861 4703 
Q 3103 4656 3366 4563 
z
" transform="scale(0.015625)"/>
       </defs>
       <use xlink:href="#DejaVuSans-36"/>
      </g>
     </g>
    </g>
    <g id="xtick_26">
     <g id="line2d_34">
      <g>
       <use xlink:href="#mea68789bc7" x="359.160034" y="307.584" style="stroke: #000000; stroke-width: 0.8"/>
      </g>
     </g>
     <g id="text_10">
      <!-- 7 -->
      <g transform="translate(355.978784 322.182437) scale(0.1 -0.1)">
       <defs>
        <path id="DejaVuSans-37" d="M 525 4666 
L 3525 4666 
L 3525 4397 
L 1831 0 
L 1172 0 
L 2766 4134 
L 525 4134 
L 525 4666 
z
" transform="scale(0.015625)"/>
       </defs>
       <use xlink:href="#DejaVuSans-37"/>
      </g>
     </g>
    </g>
    <g id="xtick_27">
     <g id="line2d_35">
      <g>
       <use xlink:href="#mea68789bc7" x="400.125908" y="307.584" style="stroke: #000000; stroke-width: 0.8"/>
      </g>
     </g>
     <g id="text_11">
      <!-- 8 -->
      <g transform="translate(396.944658 322.182437) scale(0.1 -0.1)">
       <defs>
        <path id="DejaVuSans-38" d="M 2034 2216 
Q 1584 2216 1326 1975 
Q 1069 1734 1069 1313 
Q 1069 891 1326 650 
Q 1584 409 2034 409 
Q 2484 409 2743 651 
Q 3003 894 3003 1313 
Q 3003 1734 2745 1975 
Q 2488 2216 2034 2216 
z
M 1403 2484 
Q 997 2584 770 2862 
Q 544 3141 544 3541 
Q 544 4100 942 4425 
Q 1341 4750 2034 4750 
Q 2731 4750 3128 4425 
Q 3525 4100 3525 3541 
Q 3525 3141 3298 2862 
Q 3072 2584 2669 2484 
Q 3125 2378 3379 2068 
Q 3634 1759 3634 1313 
Q 3634 634 3220 271 
Q 2806 -91 2034 -91 
Q 1263 -91 848 271 
Q 434 634 434 1313 
Q 434 1759 690 2068 
Q 947 2378 1403 2484 
z
M 1172 3481 
Q 1172 3119 1398 2916 
Q 1625 2713 2034 2713 
Q 2441 2713 2670 2916 
Q 2900 3119 2900 3481 
Q 2900 3844 2670 4047 
Q 2441 4250 2034 4250 
Q 1625 4250 1398 4047 
Q 1172 3844 1172 3481 
z
" transform="scale(0.015625)"/>
       </defs>
       <use xlink:href="#DejaVuSans-38"/>
      </g>
     </g>
    </g>
    <g id="text_12">
     <!-- Radial Distance [Å] -->
     <g transform="translate(159.6725 341.897125) scale(0.16 -0.16)">
      <defs>
       <path id="DejaVuSans-52" d="M 2841 2188 
Q 3044 2119 3236 1894 
Q 3428 1669 3622 1275 
L 4263 0 
L 3584 0 
L 2988 1197 
Q 2756 1666 2539 1819 
Q 2322 1972 1947 1972 
L 1259 1972 
L 1259 0 
L 628 0 
L 628 4666 
L 2053 4666 
Q 2853 4666 3247 4331 
Q 3641 3997 3641 3322 
Q 3641 2881 3436 2590 
Q 3231 2300 2841 2188 
z
M 1259 4147 
L 1259 2491 
L 2053 2491 
Q 2509 2491 2742 2702 
Q 2975 2913 2975 3322 
Q 2975 3731 2742 3939 
Q 2509 4147 2053 4147 
L 1259 4147 
z
" transform="scale(0.015625)"/>
       <path id="DejaVuSans-61" d="M 2194 1759 
Q 1497 1759 1228 1600 
Q 959 1441 959 1056 
Q 959 750 1161 570 
Q 1363 391 1709 391 
Q 2188 391 2477 730 
Q 2766 1069 2766 1631 
L 2766 1759 
L 2194 1759 
z
M 3341 1997 
L 3341 0 
L 2766 0 
L 2766 531 
Q 2569 213 2275 61 
Q 1981 -91 1556 -91 
Q 1019 -91 701 211 
Q 384 513 384 1019 
Q 384 1609 779 1909 
Q 1175 2209 1959 2209 
L 2766 2209 
L 2766 2266 
Q 2766 2663 2505 2880 
Q 2244 3097 1772 3097 
Q 1472 3097 1187 3025 
Q 903 2953 641 2809 
L 641 3341 
Q 956 3463 1253 3523 
Q 1550 3584 1831 3584 
Q 2591 3584 2966 3190 
Q 3341 2797 3341 1997 
z
" transform="scale(0.015625)"/>
       <path id="DejaVuSans-64" d="M 2906 2969 
L 2906 4863 
L 3481 4863 
L 3481 0 
L 2906 0 
L 2906 525 
Q 2725 213 2448 61 
Q 2172 -91 1784 -91 
Q 1150 -91 751 415 
Q 353 922 353 1747 
Q 353 2572 751 3078 
Q 1150 3584 1784 3584 
Q 2172 3584 2448 3432 
Q 2725 3281 2906 2969 
z
M 947 1747 
Q 947 1113 1208 752 
Q 1469 391 1925 391 
Q 2381 391 2643 752 
Q 2906 1113 2906 1747 
Q 2906 2381 2643 2742 
Q 2381 3103 1925 3103 
Q 1469 3103 1208 2742 
Q 947 2381 947 1747 
z
" transform="scale(0.015625)"/>
       <path id="DejaVuSans-69" d="M 603 3500 
L 1178 3500 
L 1178 0 
L 603 0 
L 603 3500 
z
M 603 4863 
L 1178 4863 
L 1178 4134 
L 603 4134 
L 603 4863 
z
" transform="scale(0.015625)"/>
       <path id="DejaVuSans-6c" d="M 603 4863 
L 1178 4863 
L 1178 0 
L 603 0 
L 603 4863 
z
" transform="scale(0.015625)"/>
       <path id="DejaVuSans-20" transform="scale(0.015625)"/>
       <path id="DejaVuSans-44" d="M 1259 4147 
L 1259 519 
L 2022 519 
Q 2988 519 3436 956 
Q 3884 1394 3884 2338 
Q 3884 3275 3436 3711 
Q 2988 4147 2022 4147 
L 1259 4147 
z
M 628 4666 
L 1925 4666 
Q 3281 4666 3915 4102 
Q 4550 3538 4550 2338 
Q 4550 1131 3912 565 
Q 3275 0 1925 0 
L 628 0 
L 628 4666 
z
" transform="scale(0.015625)"/>
       <path id="DejaVuSans-73" d="M 2834 3397 
L 2834 2853 
Q 2591 2978 2328 3040 
Q 2066 3103 1784 3103 
Q 1356 3103 1142 2972 
Q 928 2841 928 2578 
Q 928 2378 1081 2264 
Q 1234 2150 1697 2047 
L 1894 2003 
Q 2506 1872 2764 1633 
Q 3022 1394 3022 966 
Q 3022 478 2636 193 
Q 2250 -91 1575 -91 
Q 1294 -91 989 -36 
Q 684 19 347 128 
L 347 722 
Q 666 556 975 473 
Q 1284 391 1588 391 
Q 1994 391 2212 530 
Q 2431 669 2431 922 
Q 2431 1156 2273 1281 
Q 2116 1406 1581 1522 
L 1381 1569 
Q 847 1681 609 1914 
Q 372 2147 372 2553 
Q 372 3047 722 3315 
Q 1072 3584 1716 3584 
Q 2034 3584 2315 3537 
Q 2597 3491 2834 3397 
z
" transform="scale(0.015625)"/>
       <path id="DejaVuSans-74" d="M 1172 4494 
L 1172 3500 
L 2356 3500 
L 2356 3053 
L 1172 3053 
L 1172 1153 
Q 1172 725 1289 603 
Q 1406 481 1766 481 
L 2356 481 
L 2356 0 
L 1766 0 
Q 1100 0 847 248 
Q 594 497 594 1153 
L 594 3053 
L 172 3053 
L 172 3500 
L 594 3500 
L 594 4494 
L 1172 4494 
z
" transform="scale(0.015625)"/>
       <path id="DejaVuSans-6e" d="M 3513 2113 
L 3513 0 
L 2938 0 
L 2938 2094 
Q 2938 2591 2744 2837 
Q 2550 3084 2163 3084 
Q 1697 3084 1428 2787 
Q 1159 2491 1159 1978 
L 1159 0 
L 581 0 
L 581 3500 
L 1159 3500 
L 1159 2956 
Q 1366 3272 1645 3428 
Q 1925 3584 2291 3584 
Q 2894 3584 3203 3211 
Q 3513 2838 3513 2113 
z
" transform="scale(0.015625)"/>
       <path id="DejaVuSans-63" d="M 3122 3366 
L 3122 2828 
Q 2878 2963 2633 3030 
Q 2388 3097 2138 3097 
Q 1578 3097 1268 2742 
Q 959 2388 959 1747 
Q 959 1106 1268 751 
Q 1578 397 2138 397 
Q 2388 397 2633 464 
Q 2878 531 3122 666 
L 3122 134 
Q 2881 22 2623 -34 
Q 2366 -91 2075 -91 
Q 1284 -91 818 406 
Q 353 903 353 1747 
Q 353 2603 823 3093 
Q 1294 3584 2113 3584 
Q 2378 3584 2631 3529 
Q 2884 3475 3122 3366 
z
" transform="scale(0.015625)"/>
       <path id="DejaVuSans-65" d="M 3597 1894 
L 3597 1613 
L 953 1613 
Q 991 1019 1311 708 
Q 1631 397 2203 397 
Q 2534 397 2845 478 
Q 3156 559 3463 722 
L 3463 178 
Q 3153 47 2828 -22 
Q 2503 -91 2169 -91 
Q 1331 -91 842 396 
Q 353 884 353 1716 
Q 353 2575 817 3079 
Q 1281 3584 2069 3584 
Q 2775 3584 3186 3129 
Q 3597 2675 3597 1894 
z
M 3022 2063 
Q 3016 2534 2758 2815 
Q 2500 3097 2075 3097 
Q 1594 3097 1305 2825 
Q 1016 2553 972 2059 
L 3022 2063 
z
" transform="scale(0.015625)"/>
       <path id="DejaVuSans-5b" d="M 550 4863 
L 1875 4863 
L 1875 4416 
L 1125 4416 
L 1125 -397 
L 1875 -397 
L 1875 -844 
L 550 -844 
L 550 4863 
z
" transform="scale(0.015625)"/>
       <path id="DejaVuSans-c5" d="M 2663 5081 
Q 2663 5278 2523 5417 
Q 2384 5556 2188 5556 
Q 1988 5556 1852 5420 
Q 1716 5284 1716 5081 
Q 1716 4884 1853 4746 
Q 1991 4609 2188 4609 
Q 2384 4609 2523 4746 
Q 2663 4884 2663 5081 
z
M 2188 4044 
L 1338 1722 
L 3041 1722 
L 2188 4044 
z
M 1716 4366 
Q 1525 4494 1428 4673 
Q 1331 4853 1331 5081 
Q 1331 5441 1579 5691 
Q 1828 5941 2188 5941 
Q 2544 5941 2795 5689 
Q 3047 5438 3047 5081 
Q 3047 4863 2948 4678 
Q 2850 4494 2663 4366 
L 4325 0 
L 3669 0 
L 3244 1197 
L 1141 1197 
L 716 0 
L 50 0 
L 1716 4366 
z
" transform="scale(0.015625)"/>
       <path id="DejaVuSans-5d" d="M 1947 4863 
L 1947 -844 
L 622 -844 
L 622 -397 
L 1369 -397 
L 1369 4416 
L 622 4416 
L 622 4863 
L 1947 4863 
z
" transform="scale(0.015625)"/>
      </defs>
      <use xlink:href="#DejaVuSans-52"/>
      <use xlink:href="#DejaVuSans-61" x="67.232422"/>
      <use xlink:href="#DejaVuSans-64" x="128.511719"/>
      <use xlink:href="#DejaVuSans-69" x="191.988281"/>
      <use xlink:href="#DejaVuSans-61" x="219.771484"/>
      <use xlink:href="#DejaVuSans-6c" x="281.050781"/>
      <use xlink:href="#DejaVuSans-20" x="308.833984"/>
      <use xlink:href="#DejaVuSans-44" x="340.621094"/>
      <use xlink:href="#DejaVuSans-69" x="417.623047"/>
      <use xlink:href="#DejaVuSans-73" x="445.40625"/>
      <use xlink:href="#DejaVuSans-74" x="497.505859"/>
      <use xlink:href="#DejaVuSans-61" x="536.714844"/>
      <use xlink:href="#DejaVuSans-6e" x="597.994141"/>
      <use xlink:href="#DejaVuSans-63" x="661.373047"/>
      <use xlink:href="#DejaVuSans-65" x="716.353516"/>
      <use xlink:href="#DejaVuSans-20" x="777.876953"/>
      <use xlink:href="#DejaVuSans-5b" x="809.664062"/>
      <use xlink:href="#DejaVuSans-c5" x="848.677734"/>
      <use xlink:href="#DejaVuSans-5d" x="917.085938"/>
     </g>
    </g>
   </g>
   <g id="matplotlib.axis_6">
    <g id="text_13">
     <!-- LSnPS -->
     <g transform="translate(3.09125 265.122382) scale(0.16 -0.16)">
      <use xlink:href="#DejaVuSans-4c"/>
      <use xlink:href="#DejaVuSans-53" x="55.712891"/>
      <use xlink:href="#DejaVuSans-6e" x="119.189453"/>
      <use xlink:href="#DejaVuSans-50" x="182.568359"/>
      <use xlink:href="#DejaVuSans-53" x="242.871094"/>
     </g>
    </g>
   </g>
   <g id="line2d_36">
    <path d="M 74.037557 304.026353 
L 77.314826 304.026353 
L 80.592096 304.026353 
L 83.869366 304.026353 
L 87.146636 304.026353 
L 90.423906 304.026353 
L 93.701176 304.026353 
L 96.978446 304.026353 
L 100.255716 304.026353 
L 103.532985 304.026353 
L 106.810255 304.026353 
L 110.087525 304.026353 
L 113.364795 304.026353 
L 116.642065 304.026353 
L 119.919335 304.026353 
L 123.196605 304.026353 
L 126.473874 304.026353 
L 129.751144 304.026353 
L 133.028414 304.026353 
L 136.305684 304.026353 
L 139.582954 304.026353 
L 142.860224 304.026353 
L 146.137494 304.026353 
L 149.414763 302.33782 
L 152.692033 289.267866 
L 155.969303 268.174247 
L 159.246573 266.844979 
L 162.523843 274.432011 
L 165.801113 267.861479 
L 169.078383 259.019945 
L 172.355652 257.912657 
L 175.632922 259.384038 
L 178.910192 265.620364 
L 182.187462 270.787287 
L 185.464732 277.387164 
L 188.742002 279.236722 
L 192.019272 277.426368 
L 195.296541 277.16812 
L 198.573811 276.65766 
L 201.851081 274.140662 
L 205.128351 271.333982 
L 208.405621 268.287763 
L 211.682891 272.789436 
L 214.960161 271.744806 
L 218.23743 268.234352 
L 221.5147 272.718361 
L 224.79197 275.775645 
L 228.06924 273.025854 
L 231.34651 274.489237 
L 234.62378 269.771033 
L 237.90105 274.588264 
L 241.178319 275.017101 
L 244.455589 274.419858 
L 247.732859 272.095057 
L 251.010129 272.628099 
L 254.287399 274.203499 
L 257.564669 274.811585 
L 260.841939 273.985404 
L 264.119208 272.414761 
L 267.396478 275.312397 
L 270.673748 271.540055 
L 273.951018 272.957771 
L 277.228288 273.10837 
L 280.505558 273.727544 
L 283.782828 272.305928 
L 287.060098 273.593149 
L 290.337367 273.657968 
L 293.614637 274.55109 
L 296.891907 273.020304 
L 300.169177 278.443472 
L 303.446447 276.912389 
L 306.723717 275.567584 
L 310.000987 273.153481 
L 313.278256 277.095265 
L 316.555526 276.133065 
L 319.832796 271.549724 
L 323.110066 272.154184 
L 326.387336 276.775609 
L 329.664606 274.892614 
L 332.941876 271.415439 
L 336.219145 275.458747 
L 339.496415 272.575094 
L 342.773685 274.155064 
L 346.050955 273.327989 
L 349.328225 270.850209 
L 352.605495 272.769908 
L 355.882765 273.239125 
L 359.160034 272.111626 
L 362.437304 270.744973 
L 365.714574 271.426314 
L 368.991844 273.053728 
L 372.269114 275.119452 
L 375.546384 272.907105 
L 378.823654 275.009372 
L 382.100923 275.359147 
L 385.378193 274.064574 
L 388.655463 275.483523 
L 391.932733 274.447253 
L 395.210003 272.881987 
L 398.487273 273.787459 
" clip-path="url(#p130e82727b)" style="fill: none; stroke: #0000ff; stroke-width: 1.5; stroke-linecap: square"/>
   </g>
   <g id="line2d_37">
    <path d="M 74.037557 304.026353 
L 77.314826 304.026353 
L 80.592096 304.026353 
L 83.869366 304.026353 
L 87.146636 304.026353 
L 90.423906 304.026353 
L 93.701176 304.026353 
L 96.978446 304.026353 
L 100.255716 304.026353 
L 103.532985 304.026353 
L 106.810255 304.026353 
L 110.087525 304.026353 
L 113.364795 304.026353 
L 116.642065 304.026353 
L 119.919335 304.026353 
L 123.196605 304.026353 
L 126.473874 304.026353 
L 129.751144 304.026353 
L 133.028414 304.026353 
L 136.305684 304.026353 
L 139.582954 304.026353 
L 142.860224 304.026353 
L 146.137494 304.026353 
L 149.414763 302.807674 
L 152.692033 286.086529 
L 155.969303 265.730094 
L 159.246573 251.314285 
L 162.523843 266.647438 
L 165.801113 258.452152 
L 169.078383 232.873412 
L 172.355652 249.762163 
L 175.632922 243.656089 
L 178.910192 257.509265 
L 182.187462 258.445507 
L 185.464732 267.835233 
L 188.742002 269.31124 
L 192.019272 276.744648 
L 195.296541 269.086165 
L 198.573811 265.428451 
L 201.851081 268.652113 
L 205.128351 275.301582 
L 208.405621 275.105895 
L 211.682891 267.88 
L 214.960161 274.502631 
L 218.23743 263.918044 
L 221.5147 273.789727 
L 224.79197 272.89715 
L 228.06924 272.404068 
L 231.34651 277.414523 
L 234.62378 277.929443 
L 237.90105 273.146192 
L 241.178319 278.648052 
L 244.455589 274.965666 
L 247.732859 278.158337 
L 251.010129 273.660166 
L 254.287399 276.711244 
L 257.564669 275.561026 
L 260.841939 276.949658 
L 264.119208 274.130433 
L 267.396478 271.704562 
L 270.673748 273.131987 
L 273.951018 273.238674 
L 277.228288 270.252748 
L 280.505558 271.808876 
L 283.782828 274.094456 
L 287.060098 271.079123 
L 290.337367 274.345677 
L 293.614637 273.002591 
L 296.891907 272.754164 
L 300.169177 270.163791 
L 303.446447 277.618096 
L 306.723717 275.981634 
L 310.000987 274.444885 
L 313.278256 272.129397 
L 316.555526 276.133084 
L 319.832796 271.317135 
L 323.110066 270.441423 
L 326.387336 274.104225 
L 329.664606 272.89555 
L 332.941876 271.330773 
L 336.219145 272.13803 
L 339.496415 273.726455 
L 342.773685 273.071997 
L 346.050955 273.326265 
L 349.328225 275.651171 
L 352.605495 274.469479 
L 355.882765 273.889465 
L 359.160034 274.134783 
L 362.437304 272.056369 
L 365.714574 276.716245 
L 368.991844 273.535963 
L 372.269114 272.108428 
L 375.546384 271.064093 
L 378.823654 273.613275 
L 382.100923 270.937059 
L 385.378193 272.143022 
L 388.655463 273.378646 
L 391.932733 272.021485 
L 395.210003 273.22304 
L 398.487273 273.499139 
" clip-path="url(#p130e82727b)" style="fill: none; stroke-dasharray: 5.55,2.4; stroke-dashoffset: 0; stroke: #800080; stroke-width: 1.5"/>
   </g>
   <g id="line2d_38">
    <path d="M 74.037557 304.026353 
L 77.314826 304.026353 
L 80.592096 304.026353 
L 83.869366 304.026353 
L 87.146636 304.026353 
L 90.423906 304.026353 
L 93.701176 304.026353 
L 96.978446 304.026353 
L 100.255716 304.026353 
L 103.532985 304.026353 
L 106.810255 304.026353 
L 110.087525 304.026353 
L 113.364795 304.026353 
L 116.642065 304.026353 
L 119.919335 304.026353 
L 123.196605 304.026353 
L 126.473874 304.026353 
L 129.751144 304.026353 
L 133.028414 304.026353 
L 136.305684 304.026353 
L 139.582954 304.026353 
L 142.860224 304.026353 
L 146.137494 304.026353 
L 149.414763 304.026353 
L 152.692033 287.263686 
L 155.969303 266.74834 
L 159.246573 272.113495 
L 162.523843 284.06851 
L 165.801113 269.677799 
L 169.078383 256.725411 
L 172.355652 249.942577 
L 175.632922 249.173114 
L 178.910192 256.826743 
L 182.187462 268.161116 
L 185.464732 277.126968 
L 188.742002 280.435653 
L 192.019272 284.457072 
L 195.296541 279.632192 
L 198.573811 278.414257 
L 201.851081 277.642512 
L 205.128351 274.746419 
L 208.405621 269.500927 
L 211.682891 269.080625 
L 214.960161 267.76813 
L 218.23743 271.689136 
L 221.5147 272.873937 
L 224.79197 275.468601 
L 228.06924 273.211988 
L 231.34651 272.330559 
L 234.62378 271.731461 
L 237.90105 274.43261 
L 241.178319 274.708395 
L 244.455589 274.81889 
L 247.732859 277.658387 
L 251.010129 273.843257 
L 254.287399 274.030131 
L 257.564669 274.222803 
L 260.841939 274.005295 
L 264.119208 275.156515 
L 267.396478 271.72589 
L 270.673748 268.535977 
L 273.951018 267.382956 
L 277.228288 266.789693 
L 280.505558 272.036991 
L 283.782828 274.230621 
L 287.060098 271.508512 
L 290.337367 273.92719 
L 293.614637 273.406913 
L 296.891907 277.608755 
L 300.169177 275.996068 
L 303.446447 275.865305 
L 306.723717 276.110665 
L 310.000987 275.744142 
L 313.278256 277.778534 
L 316.555526 278.97291 
L 319.832796 278.99022 
L 323.110066 277.217517 
L 326.387336 274.858649 
L 329.664606 275.077436 
L 332.941876 275.366886 
L 336.219145 274.309853 
L 339.496415 273.932786 
L 342.773685 271.902504 
L 346.050955 273.7826 
L 349.328225 270.394274 
L 352.605495 271.739522 
L 355.882765 268.874867 
L 359.160034 270.271166 
L 362.437304 270.737672 
L 365.714574 272.619458 
L 368.991844 272.862904 
L 372.269114 273.267171 
L 375.546384 272.111009 
L 378.823654 272.057523 
L 382.100923 272.115877 
L 385.378193 273.68342 
L 388.655463 274.112547 
L 391.932733 274.434308 
L 395.210003 274.560656 
L 398.487273 273.532871 
" clip-path="url(#p130e82727b)" style="fill: none; stroke-dasharray: 1.5,2.475; stroke-dashoffset: 0; stroke: #ff0000; stroke-width: 1.5"/>
   </g>
   <g id="line2d_39">
    <path d="M 74.037557 304.026353 
L 77.314826 304.026353 
L 80.592096 304.026353 
L 83.869366 304.026353 
L 87.146636 304.026353 
L 90.423906 304.026353 
L 93.701176 304.026353 
L 96.978446 304.026353 
L 100.255716 304.026353 
L 103.532985 304.026353 
L 106.810255 304.026353 
L 110.087525 304.026353 
L 113.364795 304.026353 
L 116.642065 304.026353 
L 119.919335 304.026353 
L 123.196605 304.026353 
L 126.473874 304.026353 
L 129.751144 304.026353 
L 133.028414 304.026353 
L 136.305684 304.026353 
L 139.582954 304.026353 
L 142.860224 304.026353 
L 146.137494 304.026353 
L 149.414763 304.026353 
L 152.692033 294.121646 
L 155.969303 262.530307 
L 159.246573 274.720123 
L 162.523843 287.09329 
L 165.801113 275.310176 
L 169.078383 256.202287 
L 172.355652 243.062301 
L 175.632922 244.105706 
L 178.910192 260.293168 
L 182.187462 268.978025 
L 185.464732 277.128342 
L 188.742002 278.622281 
L 192.019272 278.621918 
L 195.296541 285.162498 
L 198.573811 283.661148 
L 201.851081 277.643859 
L 205.128351 268.613385 
L 208.405621 265.519191 
L 211.682891 265.537372 
L 214.960161 272.845873 
L 218.23743 279.774679 
L 221.5147 278.840579 
L 224.79197 274.412418 
L 228.06924 269.564678 
L 231.34651 272.332177 
L 234.62378 272.853107 
L 237.90105 272.640653 
L 241.178319 270.398648 
L 244.455589 271.335578 
L 247.732859 274.303982 
L 251.010129 276.154611 
L 254.287399 269.280029 
L 257.564669 275.513836 
L 260.841939 270.686696 
L 264.119208 274.088791 
L 267.396478 273.277882 
L 270.673748 270.787064 
L 273.951018 270.408055 
L 277.228288 270.070127 
L 280.505558 274.080394 
L 283.782828 269.614589 
L 287.060098 273.109329 
L 290.337367 275.273295 
L 293.614637 273.910409 
L 296.891907 276.537857 
L 300.169177 279.027646 
L 303.446447 278.627489 
L 306.723717 276.022622 
L 310.000987 276.702781 
L 313.278256 277.779875 
L 316.555526 278.974189 
L 319.832796 274.979503 
L 323.110066 278.547536 
L 326.387336 276.992394 
L 329.664606 276.489174 
L 332.941876 274.861769 
L 336.219145 272.899733 
L 339.496415 270.215857 
L 342.773685 268.947288 
L 346.050955 271.028889 
L 349.328225 270.844396 
L 352.605495 272.929966 
L 355.882765 271.688637 
L 359.160034 272.304072 
L 362.437304 269.863398 
L 365.714574 270.793845 
L 368.991844 272.026811 
L 372.269114 271.192739 
L 375.546384 271.631527 
L 378.823654 274.099615 
L 382.100923 274.217447 
L 385.378193 271.177417 
L 388.655463 273.721138 
L 391.932733 272.992379 
L 395.210003 275.552157 
L 398.487273 274.458426 
" clip-path="url(#p130e82727b)" style="fill: none; stroke-dasharray: 9.6,2.4,1.5,2.4; stroke-dashoffset: 0; stroke: #ffa500; stroke-width: 1.5"/>
   </g>
   <g id="patch_13">
    <path d="M 57.6 307.584 
L 57.6 229.315765 
" style="fill: none; stroke: #000000; stroke-width: 0.8; stroke-linejoin: miter; stroke-linecap: square"/>
   </g>
   <g id="patch_14">
    <path d="M 414.72 307.584 
L 414.72 229.315765 
" style="fill: none; stroke: #000000; stroke-width: 0.8; stroke-linejoin: miter; stroke-linecap: square"/>
   </g>
   <g id="patch_15">
    <path d="M 57.6 307.584 
L 414.72 307.584 
" style="fill: none; stroke: #000000; stroke-width: 0.8; stroke-linejoin: miter; stroke-linecap: square"/>
   </g>
   <g id="patch_16">
    <path d="M 57.6 229.315765 
L 414.72 229.315765 
" style="fill: none; stroke: #000000; stroke-width: 0.8; stroke-linejoin: miter; stroke-linecap: square"/>
   </g>
   <g id="legend_1">
    <g id="patch_17">
     <path d="M 64.6 296.028265 
L 135.4625 296.028265 
Q 137.4625 296.028265 137.4625 294.028265 
L 137.4625 236.315765 
Q 137.4625 234.315765 135.4625 234.315765 
L 64.6 234.315765 
Q 62.6 234.315765 62.6 236.315765 
L 62.6 294.028265 
Q 62.6 296.028265 64.6 296.028265 
z
" style="fill: #ffffff; opacity: 0.8; stroke: #cccccc; stroke-linejoin: miter"/>
    </g>
    <g id="line2d_40">
     <path d="M 66.6 242.414202 
L 76.6 242.414202 
L 86.6 242.414202 
" style="fill: none; stroke: #0000ff; stroke-width: 1.5; stroke-linecap: square"/>
    </g>
    <g id="text_14">
     <!-- chgnet -->
     <g transform="translate(94.6 245.914202) scale(0.1 -0.1)">
      <defs>
       <path id="DejaVuSans-68" d="M 3513 2113 
L 3513 0 
L 2938 0 
L 2938 2094 
Q 2938 2591 2744 2837 
Q 2550 3084 2163 3084 
Q 1697 3084 1428 2787 
Q 1159 2491 1159 1978 
L 1159 0 
L 581 0 
L 581 4863 
L 1159 4863 
L 1159 2956 
Q 1366 3272 1645 3428 
Q 1925 3584 2291 3584 
Q 2894 3584 3203 3211 
Q 3513 2838 3513 2113 
z
" transform="scale(0.015625)"/>
       <path id="DejaVuSans-67" d="M 2906 1791 
Q 2906 2416 2648 2759 
Q 2391 3103 1925 3103 
Q 1463 3103 1205 2759 
Q 947 2416 947 1791 
Q 947 1169 1205 825 
Q 1463 481 1925 481 
Q 2391 481 2648 825 
Q 2906 1169 2906 1791 
z
M 3481 434 
Q 3481 -459 3084 -895 
Q 2688 -1331 1869 -1331 
Q 1566 -1331 1297 -1286 
Q 1028 -1241 775 -1147 
L 775 -588 
Q 1028 -725 1275 -790 
Q 1522 -856 1778 -856 
Q 2344 -856 2625 -561 
Q 2906 -266 2906 331 
L 2906 616 
Q 2728 306 2450 153 
Q 2172 0 1784 0 
Q 1141 0 747 490 
Q 353 981 353 1791 
Q 353 2603 747 3093 
Q 1141 3584 1784 3584 
Q 2172 3584 2450 3431 
Q 2728 3278 2906 2969 
L 2906 3500 
L 3481 3500 
L 3481 434 
z
" transform="scale(0.015625)"/>
      </defs>
      <use xlink:href="#DejaVuSans-63"/>
      <use xlink:href="#DejaVuSans-68" x="54.980469"/>
      <use xlink:href="#DejaVuSans-67" x="118.359375"/>
      <use xlink:href="#DejaVuSans-6e" x="181.835938"/>
      <use xlink:href="#DejaVuSans-65" x="245.214844"/>
      <use xlink:href="#DejaVuSans-74" x="306.738281"/>
     </g>
    </g>
    <g id="line2d_41">
     <path d="M 66.6 257.092327 
L 76.6 257.092327 
L 86.6 257.092327 
" style="fill: none; stroke-dasharray: 5.55,2.4; stroke-dashoffset: 0; stroke: #800080; stroke-width: 1.5"/>
    </g>
    <g id="text_15">
     <!-- m3gnet -->
     <g transform="translate(94.6 260.592327) scale(0.1 -0.1)">
      <defs>
       <path id="DejaVuSans-6d" d="M 3328 2828 
Q 3544 3216 3844 3400 
Q 4144 3584 4550 3584 
Q 5097 3584 5394 3201 
Q 5691 2819 5691 2113 
L 5691 0 
L 5113 0 
L 5113 2094 
Q 5113 2597 4934 2840 
Q 4756 3084 4391 3084 
Q 3944 3084 3684 2787 
Q 3425 2491 3425 1978 
L 3425 0 
L 2847 0 
L 2847 2094 
Q 2847 2600 2669 2842 
Q 2491 3084 2119 3084 
Q 1678 3084 1418 2786 
Q 1159 2488 1159 1978 
L 1159 0 
L 581 0 
L 581 3500 
L 1159 3500 
L 1159 2956 
Q 1356 3278 1631 3431 
Q 1906 3584 2284 3584 
Q 2666 3584 2933 3390 
Q 3200 3197 3328 2828 
z
" transform="scale(0.015625)"/>
      </defs>
      <use xlink:href="#DejaVuSans-6d"/>
      <use xlink:href="#DejaVuSans-33" x="97.412109"/>
      <use xlink:href="#DejaVuSans-67" x="161.035156"/>
      <use xlink:href="#DejaVuSans-6e" x="224.511719"/>
      <use xlink:href="#DejaVuSans-65" x="287.890625"/>
      <use xlink:href="#DejaVuSans-74" x="349.414062"/>
     </g>
    </g>
    <g id="line2d_42">
     <path d="M 66.6 271.770452 
L 76.6 271.770452 
L 86.6 271.770452 
" style="fill: none; stroke-dasharray: 1.5,2.475; stroke-dashoffset: 0; stroke: #ff0000; stroke-width: 1.5"/>
    </g>
    <g id="text_16">
     <!-- mace -->
     <g transform="translate(94.6 275.270452) scale(0.1 -0.1)">
      <use xlink:href="#DejaVuSans-6d"/>
      <use xlink:href="#DejaVuSans-61" x="97.412109"/>
      <use xlink:href="#DejaVuSans-63" x="158.691406"/>
      <use xlink:href="#DejaVuSans-65" x="213.671875"/>
     </g>
    </g>
    <g id="line2d_43">
     <path d="M 66.6 286.448577 
L 76.6 286.448577 
L 86.6 286.448577 
" style="fill: none; stroke-dasharray: 9.6,2.4,1.5,2.4; stroke-dashoffset: 0; stroke: #ffa500; stroke-width: 1.5"/>
    </g>
    <g id="text_17">
     <!-- orb -->
     <g transform="translate(94.6 289.948577) scale(0.1 -0.1)">
      <defs>
       <path id="DejaVuSans-6f" d="M 1959 3097 
Q 1497 3097 1228 2736 
Q 959 2375 959 1747 
Q 959 1119 1226 758 
Q 1494 397 1959 397 
Q 2419 397 2687 759 
Q 2956 1122 2956 1747 
Q 2956 2369 2687 2733 
Q 2419 3097 1959 3097 
z
M 1959 3584 
Q 2709 3584 3137 3096 
Q 3566 2609 3566 1747 
Q 3566 888 3137 398 
Q 2709 -91 1959 -91 
Q 1206 -91 779 398 
Q 353 888 353 1747 
Q 353 2609 779 3096 
Q 1206 3584 1959 3584 
z
" transform="scale(0.015625)"/>
       <path id="DejaVuSans-72" d="M 2631 2963 
Q 2534 3019 2420 3045 
Q 2306 3072 2169 3072 
Q 1681 3072 1420 2755 
Q 1159 2438 1159 1844 
L 1159 0 
L 581 0 
L 581 3500 
L 1159 3500 
L 1159 2956 
Q 1341 3275 1631 3429 
Q 1922 3584 2338 3584 
Q 2397 3584 2469 3576 
Q 2541 3569 2628 3553 
L 2631 2963 
z
" transform="scale(0.015625)"/>
       <path id="DejaVuSans-62" d="M 3116 1747 
Q 3116 2381 2855 2742 
Q 2594 3103 2138 3103 
Q 1681 3103 1420 2742 
Q 1159 2381 1159 1747 
Q 1159 1113 1420 752 
Q 1681 391 2138 391 
Q 2594 391 2855 752 
Q 3116 1113 3116 1747 
z
M 1159 2969 
Q 1341 3281 1617 3432 
Q 1894 3584 2278 3584 
Q 2916 3584 3314 3078 
Q 3713 2572 3713 1747 
Q 3713 922 3314 415 
Q 2916 -91 2278 -91 
Q 1894 -91 1617 61 
Q 1341 213 1159 525 
L 1159 0 
L 581 0 
L 581 4863 
L 1159 4863 
L 1159 2969 
z
" transform="scale(0.015625)"/>
      </defs>
      <use xlink:href="#DejaVuSans-6f"/>
      <use xlink:href="#DejaVuSans-72" x="61.181641"/>
      <use xlink:href="#DejaVuSans-62" x="102.294922"/>
     </g>
    </g>
   </g>
  </g>
 </g>
 <defs>
  <clipPath id="p7e3c529e58">
   <rect x="57.6" y="41.472" width="357.12" height="78.268235"/>
  </clipPath>
  <clipPath id="p52c35b9a50">
   <rect x="57.6" y="135.393882" width="357.12" height="78.268235"/>
  </clipPath>
  <clipPath id="p130e82727b">
   <rect x="57.6" y="229.315765" width="357.12" height="78.268235"/>
  </clipPath>
 </defs>
</svg>
